<?xml version="1.0" standalone="no"?>
<!DOCTYPE svg PUBLIC "-//W3C//DTD SVG 20010904//EN"
 "http://www.w3.org/TR/2001/REC-SVG-20010904/DTD/svg10.dtd">
<svg version="1.0" xmlns="http://www.w3.org/2000/svg"
 width="1024.000000pt" height="1024.000000pt" viewBox="0 0 1024.000000 1024.000000"
 preserveAspectRatio="xMidYMid meet">

<g transform="translate(0.000000,1024.000000) scale(0.100000,-0.100000)"
fill="#000000" stroke="none">
<path d="M1938 7373 c7 -3 16 -2 19 1 4 3 -2 6 -13 5 -11 0 -14 -3 -6 -6z"/>
<path d="M1993 7373 c9 -2 25 -2 35 0 9 3 1 5 -18 5 -19 0 -27 -2 -17 -5z"/>
<path d="M6513 7303 c53 -2 141 -2 195 0 53 1 9 3 -98 3 -107 0 -151 -2 -97
-3z"/>
<path d="M1734 7275 c-9 -14 -15 -27 -13 -30 3 -2 12 10 21 26 21 36 15 39 -8
4z"/>
<path d="M6368 7293 c6 -2 18 -2 25 0 6 3 1 5 -13 5 -14 0 -19 -2 -12 -5z"/>
<path d="M6821 7296 c2 -2 38 -6 79 -9 56 -4 65 -3 35 3 -40 9 -122 13 -114 6z"/>
<path d="M4835 7280 c-593 -5 -600 -5 -640 -27 -45 -25 -60 -44 -275 -366
-134 -201 -159 -232 -183 -235 -40 -5 -60 20 -237 299 -85 134 -170 258 -187
276 -42 41 -87 53 -193 51 l-85 -1 100 -7 c143 -9 161 -20 230 -135 30 -50 33
-60 21 -67 -9 -5 -19 -9 -23 -9 -5 -1 -19 -9 -33 -18 -14 -10 -30 -21 -37 -24
-7 -4 -23 14 -42 48 -17 30 -39 59 -50 65 -30 16 -32 12 -7 -13 12 -12 55 -81
96 -152 79 -141 395 -679 415 -707 11 -16 13 -15 26 10 8 15 61 104 118 197
122 200 309 511 323 540 19 39 -32 -29 -67 -90 -34 -58 -74 -115 -75 -105 0 3
7 30 15 60 8 30 15 56 15 58 0 1 -9 -2 -20 -8 -16 -8 -22 -7 -32 10 -12 19
-13 19 -36 -8 -29 -35 32 64 121 196 110 162 22 146 852 150 426 2 725 -1 764
-7 39 -6 79 -20 103 -36 22 -15 42 -24 44 -22 7 6 -46 43 -82 58 -46 19 -295
24 -939 19z m-1401 -256 c3 -8 2 -12 -4 -9 -6 3 -10 10 -10 16 0 14 7 11 14
-7z m318 -693 l-36 -70 -23 41 c-29 50 -29 50 3 38 23 -9 30 -6 58 25 17 19
32 35 32 35 1 0 -14 -31 -34 -69z"/>
<path d="M6283 7283 c9 -2 25 -2 35 0 9 3 1 5 -18 5 -19 0 -27 -2 -17 -5z"/>
<path d="M7368 7283 c7 -3 16 -2 19 1 4 3 -2 6 -13 5 -11 0 -14 -3 -6 -6z"/>
<path d="M1873 7265 c-48 -20 -67 -56 -59 -111 6 -45 98 -204 461 -794 59 -96
153 -249 208 -340 55 -91 181 -295 281 -455 l181 -290 5 -640 c4 -516 8 -645
19 -665 26 -48 75 -90 127 -109 48 -18 85 -20 570 -22 571 -2 554 -4 626 60
75 66 72 41 78 661 l5 555 29 50 c16 28 76 124 134 215 135 214 152 240 155
240 1 0 1 -36 -1 -80 -15 -318 137 -743 373 -1045 115 -148 313 -322 480 -425
362 -222 845 -324 1320 -280 375 36 704 154 988 357 106 76 287 257 361 362
77 108 184 320 224 445 110 341 115 748 12 1093 -140 473 -466 854 -913 1068
-170 82 -448 167 -534 164 -16 0 10 -9 57 -19 196 -41 378 -106 537 -191 93
-50 196 -119 189 -127 -3 -3 -14 2 -24 11 -17 16 -20 15 -42 -8 -23 -24 -35
-25 -35 -2 0 7 -17 12 -40 12 -26 1 -72 16 -129 44 -132 63 -365 143 -409 140
-6 0 24 -11 68 -24 288 -82 527 -220 724 -416 308 -309 455 -691 438 -1143
-15 -412 -176 -785 -462 -1071 -75 -75 -255 -218 -255 -202 0 2 37 33 83 69
87 70 193 176 243 243 16 22 -13 -4 -65 -58 -310 -323 -715 -492 -1231 -514
-329 -14 -621 47 -905 188 -162 81 -288 172 -420 304 -288 286 -426 634 -429
1075 -2 384 104 701 331 983 56 70 59 94 3 31 -30 -35 -58 -41 -29 -7 15 18
40 69 45 89 4 23 59 101 93 133 20 18 27 28 16 21 -11 -7 4 10 33 38 98 95
269 196 522 309 44 20 3 14 -50 -7 -35 -14 -57 -17 -68 -11 -9 5 -29 8 -44 6
-16 -2 -30 1 -33 5 -3 5 -19 5 -35 0 -18 -5 -32 -5 -36 1 -3 5 -10 7 -15 3 -6
-3 -23 -8 -37 -9 -15 -2 -45 -6 -67 -8 -24 -3 -43 -1 -47 6 -4 7 -11 8 -20 0
-24 -18 -47 -23 -42 -8 5 11 -1 12 -28 5 -18 -5 -267 -11 -553 -12 -483 -3
-522 -5 -554 -22 -36 -19 -91 -74 -91 -91 0 -5 14 8 32 29 55 67 42 66 604 66
l506 0 -46 -62 c-25 -35 -88 -126 -140 -203 -202 -299 -703 -1042 -870 -1292
l-175 -261 -1 -611 -1 -611 -382 -2 c-572 -2 -542 -1 -566 -22 -12 -11 -23
-17 -25 -15 -5 5 -15 660 -16 1005 l0 262 -96 158 c-53 88 -142 236 -199 329
-160 266 -257 424 -475 780 -112 182 -216 352 -232 378 -16 27 -46 75 -68 108
l-39 59 231 0 c127 0 229 2 227 4 -2 3 -106 6 -229 7 -222 2 -225 2 -235 -19
-11 -26 -40 -29 -49 -6 -4 11 -10 13 -19 7 -14 -11 -30 -10 -70 1 -25 8 -28
12 -25 49 2 30 10 45 31 61 26 19 46 21 235 26 l207 6 -200 2 c-151 1 -208 -2
-232 -13z m3478 -147 c-6 -7 -66 -96 -134 -198 -68 -102 -211 -315 -318 -475
-108 -159 -312 -463 -454 -675 -142 -212 -271 -402 -287 -422 -16 -20 -28 -40
-27 -45 1 -4 1 -288 0 -630 l-1 -623 -477 0 c-268 0 -484 4 -492 9 -29 19 58
22 501 19 l447 -3 1 565 c1 311 2 590 4 620 3 48 10 64 52 122 99 135 624 923
624 937 0 5 4 11 9 13 5 2 39 50 76 108 155 240 449 676 464 687 20 14 27 9
12 -9z m2300 -185 c13 -15 12 -15 -8 -4 -24 12 -29 21 -14 21 5 0 15 -7 22
-17z m170 -10 c13 -16 12 -17 -3 -4 -10 7 -18 15 -18 17 0 8 8 3 21 -13z
m-116 -23 c3 -5 2 -10 -4 -10 -5 0 -13 5 -16 10 -3 6 -2 10 4 10 5 0 13 -4 16
-10z m155 -5 c11 -13 10 -14 -4 -9 -9 3 -16 10 -16 15 0 13 6 11 20 -6z
m-2983 -1197 c-3 -8 -6 -5 -6 6 -1 11 2 17 5 13 3 -3 4 -12 1 -19z m-6 -131
c-8 -8 -11 -6 -11 6 0 10 -7 20 -15 23 -12 5 -11 9 5 27 11 11 21 26 22 31 1
6 3 -9 5 -33 3 -24 -1 -49 -6 -54z m2734 -1295 c-18 -15 -85 -54 -85 -48 0 3
19 16 43 30 43 26 59 33 42 18z m-135 -78 c0 -10 -147 -72 -256 -107 -219 -71
-476 -104 -714 -92 -80 4 -165 11 -190 15 -42 8 -41 9 15 5 204 -15 275 -16
405 -6 259 19 468 68 650 151 97 44 90 42 90 34z m-1273 -160 c-3 -3 -12 -4
-19 -1 -8 3 -5 6 6 6 11 1 17 -2 13 -5z"/>
<path d="M6218 7273 c7 -3 16 -2 19 1 4 3 -2 6 -13 5 -11 0 -14 -3 -6 -6z"/>
<path d="M6168 7263 c7 -3 16 -2 19 1 4 3 -2 6 -13 5 -11 0 -14 -3 -6 -6z"/>
<path d="M6128 7253 c7 -3 16 -2 19 1 4 3 -2 6 -13 5 -11 0 -14 -3 -6 -6z"/>
<path d="M7460 7250 c8 -5 20 -10 25 -10 6 0 3 5 -5 10 -8 5 -19 10 -25 10 -5
0 -3 -5 5 -10z"/>
<path d="M1712 7210 c0 -14 2 -19 5 -12 2 6 2 18 0 25 -3 6 -5 1 -5 -13z"/>
<path d="M5948 7203 c7 -3 16 -2 19 1 4 3 -2 6 -13 5 -11 0 -14 -3 -6 -6z"/>
<path d="M1706 7150 c3 -19 9 -47 14 -62 8 -26 214 -364 233 -383 13 -12 -6
21 -115 201 -105 173 -118 197 -118 226 0 13 -5 30 -10 38 -7 11 -8 5 -4 -20z"/>
<path d="M3008 7143 c29 -2 74 -2 100 0 26 2 2 3 -53 3 -55 0 -76 -1 -47 -3z"/>
<path d="M7068 7143 c7 -3 16 -2 19 1 4 3 -2 6 -13 5 -11 0 -14 -3 -6 -6z"/>
<path d="M7573 7059 c9 -5 18 -20 18 -32 1 -18 2 -18 6 -4 5 20 -13 47 -31 47
-6 0 -3 -5 7 -11z"/>
<path d="M7590 6980 c0 -5 5 -10 11 -10 5 0 7 5 4 10 -3 6 -8 10 -11 10 -2 0
-4 -4 -4 -10z"/>
<path d="M7699 6987 c-1 -1 -2 -14 -3 -29 -2 -26 -1 -26 16 -11 10 9 18 19 18
23 0 7 -28 22 -31 17z"/>
<path d="M3745 6799 c-4 -6 -13 -8 -21 -5 -8 3 -11 0 -7 -10 7 -19 16 -18 31
6 7 11 10 20 8 20 -3 0 -8 -5 -11 -11z"/>
<path d="M1963 6683 c2 -5 116 -190 252 -413 137 -223 292 -477 346 -565 54
-88 105 -169 114 -180 25 -30 14 -12 -76 135 -106 173 -282 462 -344 565 -26
44 -80 132 -120 195 -40 63 -93 150 -120 193 -26 42 -49 77 -52 77 -2 0 -2 -3
0 -7z"/>
<path d="M6613 6423 c9 -2 23 -2 30 0 6 3 -1 5 -18 5 -16 0 -22 -2 -12 -5z"/>
<path d="M6718 6413 c12 -2 32 -2 45 0 12 2 2 4 -23 4 -25 0 -35 -2 -22 -4z"/>
<path d="M6275 6351 c-22 -11 -37 -20 -34 -20 10 -1 79 29 79 34 0 7 0 7 -45
-14z"/>
<path d="M6500 6349 c-234 -41 -419 -175 -516 -374 -64 -132 -78 -201 -78
-380 1 -122 5 -165 22 -230 72 -268 255 -443 529 -506 131 -30 292 -24 408 16
187 63 328 183 407 345 43 87 89 252 75 266 -3 3 -10 -20 -17 -50 -6 -31 -14
-56 -17 -56 -6 0 6 372 12 378 2 2 6 -18 10 -45 11 -78 16 -74 10 10 -6 100
-53 242 -107 324 -88 137 -241 246 -403 288 -73 20 -260 27 -335 14z m797
-931 c-3 -8 -6 -5 -6 6 -1 11 2 17 5 13 3 -3 4 -12 1 -19z m-147 -342 c0 -2
-8 -10 -17 -17 -16 -13 -17 -12 -4 4 13 16 21 21 21 13z"/>
<path d="M6991 6346 c2 -2 15 -9 29 -15 24 -11 24 -11 6 3 -16 13 -49 24 -35
12z"/>
<path d="M6159 6288 c-69 -49 -137 -117 -181 -181 -22 -32 -38 -60 -36 -62 2
-2 19 19 38 48 46 69 112 135 184 186 33 22 55 41 50 41 -6 0 -30 -14 -55 -32z"/>
<path d="M5881 5904 c0 -11 3 -14 6 -6 3 7 2 16 -1 19 -3 4 -6 -2 -5 -13z"/>
<path d="M5871 5864 c0 -11 3 -14 6 -6 3 7 2 16 -1 19 -3 4 -6 -2 -5 -13z"/>
<path d="M5852 5730 c0 -19 2 -27 5 -17 2 9 2 25 0 35 -3 9 -5 1 -5 -18z"/>
<path d="M8207 5563 c-7 -202 -33 -333 -102 -498 -201 -486 -602 -792 -1180
-898 -102 -19 -156 -22 -359 -22 -164 0 -222 -3 -185 -8 92 -14 441 -1 564 21
161 30 189 37 307 81 211 78 359 167 522 314 145 130 296 362 366 561 55 158
71 254 77 449 3 97 4 177 1 177 -3 0 -8 -80 -11 -177z"/>
<path d="M4157 5613 c-68 -99 -69 -100 -53 -100 8 0 12 7 9 14 -3 8 0 13 8 11
9 -2 13 4 11 15 -2 9 1 16 7 15 5 -2 9 1 10 5 0 4 10 16 21 25 12 9 22 24 24
32 1 8 8 25 14 38 26 45 2 20 -51 -55z"/>
<path d="M2700 5480 c6 -11 13 -20 16 -20 2 0 0 9 -6 20 -6 11 -13 20 -16 20
-2 0 0 -9 6 -20z"/>
<path d="M2729 5435 c5 -11 17 -29 26 -40 l16 -20 -10 20 c-5 11 -17 29 -26
40 l-16 20 10 -20z"/>
<path d="M2787 5341 c10 -18 25 -45 33 -60 12 -21 16 -86 21 -336 l5 -310 0
310 c-1 333 -2 337 -57 405 l-20 25 18 -34z"/>
<path d="M4610 5341 c0 -6 -35 -66 -77 -133 l-78 -123 -5 -560 -5 -560 -30
-54 c-16 -29 -49 -70 -73 -91 -80 -71 -72 -70 -668 -70 -490 0 -537 1 -592 18
-104 33 -185 105 -221 197 l-11 30 5 -30 c25 -134 281 -304 524 -350 67 -13
161 -15 543 -13 l463 3 57 27 c76 35 142 98 175 167 27 54 28 64 34 246 3 105
6 370 8 590 1 220 4 401 6 403 5 5 6 1 67 -153 107 -272 305 -545 553 -764
103 -90 299 -250 341 -277 13 -9 29 -12 35 -8 7 4 9 3 5 -4 -3 -5 9 -20 28
-31 36 -23 51 -27 41 -11 -3 6 1 7 10 3 12 -4 13 -8 5 -13 -26 -16 242 -140
413 -190 203 -61 308 -74 562 -74 255 0 370 13 580 65 416 104 761 303 1001
577 78 88 195 252 181 252 -2 0 -21 -26 -42 -57 -46 -70 -142 -189 -181 -223
-15 -14 -3 7 28 45 85 108 153 213 213 332 59 117 136 329 134 372 -1 24 -1
24 -10 -6 -9 -30 -12 -32 -29 -21 -11 7 -20 19 -20 26 0 9 -7 11 -19 7 -31 -9
-32 8 -11 97 30 126 24 117 -30 -44 -125 -376 -348 -673 -669 -889 -456 -308
-1143 -433 -1711 -314 -484 103 -872 353 -1182 763 -156 206 -309 570 -325
770 -3 40 -10 75 -14 78 -5 3 -9 0 -9 -5z m26 -1418 c-4 -37 -16 -88 -27 -113
-19 -42 -103 -140 -121 -140 -5 0 7 14 27 32 33 28 90 119 66 104 -6 -4 -13 4
-17 18 -7 28 -79 90 -94 81 -6 -3 -10 -2 -10 4 0 15 22 26 58 27 18 1 32 -3
32 -10 0 -6 4 -6 9 3 7 10 13 11 31 1 26 -14 40 -1 40 38 0 12 3 22 6 22 4 0
4 -30 0 -67z m1234 -198 c36 -19 61 -34 55 -34 -5 0 -39 15 -75 34 -36 19 -60
34 -55 34 6 0 39 -15 75 -34z m217 -85 c113 -39 379 -99 450 -101 21 -1 29 -4
18 -6 -25 -7 -178 14 -280 37 -89 21 -277 84 -315 107 -29 17 -28 16 127 -37z"/>
<path d="M8581 5164 c0 -11 3 -14 6 -6 3 7 2 16 -1 19 -3 4 -6 -2 -5 -13z"/>
<path d="M5850 5164 c0 -11 59 -114 65 -114 3 0 -9 26 -27 58 -37 66 -38 68
-38 56z"/>
<path d="M8571 5114 c0 -11 3 -14 6 -6 3 7 2 16 -1 19 -3 4 -6 -2 -5 -13z"/>
<path d="M3984 4750 c0 -190 2 -267 3 -172 2 94 2 250 0 345 -1 94 -3 17 -3
-173z"/>
<path d="M8711 5044 c0 -11 3 -14 6 -6 3 7 2 16 -1 19 -3 4 -6 -2 -5 -13z"/>
<path d="M5930 5030 c0 -16 168 -181 208 -203 45 -25 40 -15 -8 17 -57 38
-117 93 -162 149 -21 27 -38 44 -38 37z"/>
<path d="M8701 4984 c0 -11 3 -14 6 -6 3 7 2 16 -1 19 -3 4 -6 -2 -5 -13z"/>
<path d="M5140 4944 c0 -6 7 -19 16 -30 14 -18 14 -18 3 6 -14 31 -19 36 -19
24z"/>
<path d="M6180 4805 c0 -7 81 -47 86 -43 2 3 -17 14 -41 26 -25 12 -45 20 -45
17z"/>
<path d="M7927 4793 c-4 -3 -7 -11 -7 -17 0 -6 5 -5 12 2 6 6 9 14 7 17 -3 3
-9 2 -12 -2z"/>
<path d="M8636 4745 c-9 -26 -7 -32 5 -12 6 10 9 21 6 23 -2 3 -7 -2 -11 -11z"/>
<path d="M8606 4665 c-9 -26 -7 -32 5 -12 6 10 9 21 6 23 -2 3 -7 -2 -11 -11z"/>
<path d="M5375 4610 c147 -162 364 -301 602 -384 110 -38 301 -80 330 -73 13
3 11 5 -7 6 -47 2 -205 40 -295 70 -233 77 -414 186 -600 361 -66 62 -71 65
-30 20z"/>
<path d="M2842 4590 c0 -19 2 -27 5 -17 2 9 2 25 0 35 -3 9 -5 1 -5 -18z"/>
<path d="M2843 4515 c0 -22 2 -30 4 -17 2 12 2 30 0 40 -3 9 -5 -1 -4 -23z"/>
<path d="M8505 4450 c-9 -16 -13 -30 -11 -30 3 0 12 14 21 30 9 17 13 30 11
30 -3 0 -12 -13 -21 -30z"/>
<path d="M7360 4319 c0 -5 5 -7 10 -4 6 3 10 8 10 11 0 2 -4 4 -10 4 -5 0 -10
-5 -10 -11z"/>
<path d="M7231 4274 c0 -11 3 -14 6 -6 3 7 2 16 -1 19 -3 4 -6 -2 -5 -13z"/>
<path d="M3418 4213 c105 -2 279 -2 385 0 105 1 19 2 -193 2 -212 0 -298 -1
-192 -2z"/>
<path d="M2843 4070 c0 -41 2 -58 4 -37 2 20 2 54 0 75 -2 20 -4 3 -4 -38z"/>
</g>
</svg>
